<?xml version="1.0" encoding="UTF-8"?>
<svg width="1440" height="800" viewBox="0 0 1440 800" fill="none" xmlns="http://www.w3.org/2000/svg">
    <!-- Background Grid -->
    <path d="M0 0h1440v800H0z" fill="none"/>
    
    <!-- Pipeline System -->
    <g stroke="#000" stroke-width="2" stroke-linecap="round">
        <!-- Main Pipeline -->
        <path d="M-100 400h1640" stroke-width="4"/>
        
        <!-- Vertical Connectors -->
        <path d="M200 100v600" stroke-dasharray="4 8"/>
        <path d="M400 50v700" stroke-dasharray="6 10"/>
        <path d="M600 150v500" stroke-dasharray="4 6"/>
        <path d="M800 200v400" stroke-dasharray="8 12"/>
        <path d="M1000 100v600" stroke-dasharray="5 9"/>
        <path d="M1200 50v700" stroke-dasharray="6 8"/>
        
        <!-- Junction Points -->
        <circle cx="200" cy="400" r="8" fill="#000" fill-opacity="0.1"/>
        <circle cx="400" cy="400" r="8" fill="#000" fill-opacity="0.1"/>
        <circle cx="600" cy="400" r="8" fill="#000" fill-opacity="0.1"/>
        <circle cx="800" cy="400" r="8" fill="#000" fill-opacity="0.1"/>
        <circle cx="1000" cy="400" r="8" fill="#000" fill-opacity="0.1"/>
        <circle cx="1200" cy="400" r="8" fill="#000" fill-opacity="0.1"/>
        
        <!-- Document Flow Indicators -->
        <path d="M300 400l20-20 20 20-20 20z" fill="#000" fill-opacity="0.05"/>
        <path d="M700 400l20-20 20 20-20 20z" fill="#000" fill-opacity="0.05"/>
        <path d="M1100 400l20-20 20 20-20 20z" fill="#000" fill-opacity="0.05"/>
    </g>
    
    <!-- Connection Points -->
    <g fill="#000" fill-opacity="0.05">
        <circle cx="200" cy="200" r="4"/>
        <circle cx="400" cy="300" r="4"/>
        <circle cx="600" cy="250" r="4"/>
        <circle cx="800" cy="350" r="4"/>
        <circle cx="1000" cy="200" r="4"/>
        <circle cx="1200" cy="300" r="4"/>
    </g>
    
    <!-- Abstract Shapes -->
    <g fill="#000" fill-opacity="0.02" stroke="#000" stroke-opacity="0.05">
        <rect x="150" y="150" width="100" height="100" rx="8"/>
        <circle cx="500" cy="250" r="60"/>
        <path d="M850 200l50-50 50 50-50 50z"/>
        <rect x="1100" y="150" width="80" height="80" rx="40"/>
    </g>
</svg>